<?xml version="1.0" standalone="no"?>
<!DOCTYPE svg PUBLIC "-//W3C//DTD SVG 20010904//EN"
 "http://www.w3.org/TR/2001/REC-SVG-20010904/DTD/svg10.dtd">
<svg version="1.0" xmlns="http://www.w3.org/2000/svg"
 width="258.000000pt" height="258.000000pt" viewBox="0 0 258.000000 258.000000"
 preserveAspectRatio="xMidYMid meet">
<metadata>
Created by potrace 1.11, written by Peter Selinger 2001-2013
</metadata>
<g transform="translate(0.000000,258.000000) scale(0.100000,-0.100000)"
fill="#000000" stroke="none">
<path d="M214 2556 c-60 -28 -115 -80 -146 -139 l-23 -42 -3 -1074 -2 -1073
23 -52 c34 -74 70 -111 139 -145 l61 -31 1027 0 1027 0 61 31 c69 34 105 71
139 145 l23 52 -2 1073 -3 1074 -23 42 c-31 59 -86 111 -146 139 l-51 24
-1025 0 -1025 0 -51 -24z"/>
</g>
</svg>
